<svg width="313" height="328" viewBox="0 0 313 328" fill="none" xmlns="http://www.w3.org/2000/svg">
<path d="M154.03 0.00423574C135.689 0.00423574 120.766 14.9269 120.766 33.2682C120.766 51.6096 135.689 66.5322 154.03 66.5322C172.371 66.5322 187.294 51.6096 187.294 33.2682C187.294 14.9269 172.371 0.00423574 154.03 0.00423574ZM154.03 16.1336C163.493 16.1336 171.165 23.8056 171.165 33.2682C171.165 42.7309 163.493 50.4029 154.03 50.4029C144.567 50.4029 136.895 42.7309 136.895 33.2682C136.895 23.8056 144.567 16.1336 154.03 16.1336Z" fill="#537EE4"/>
<path d="M81.9638 41.3042C78.8118 47.2242 72.2838 51.0802 64.9585 50.3015C56.6625 49.4215 50.0998 42.4135 49.7158 34.0802C49.2625 24.2495 57.0985 16.1375 66.8291 16.1375C71.9491 16.1375 76.5465 18.3855 79.6852 21.9522C81.8398 24.4015 85.2358 25.3415 88.2825 24.1749C88.5465 24.0735 88.8105 23.9722 89.0745 23.8709C93.9572 22.0002 95.6265 15.8495 92.2558 11.8522C85.3692 3.68155 74.6252 -1.13714 62.8705 0.230863C47.6652 1.99886 35.4598 14.2722 33.7692 29.4869C31.5452 49.5055 47.2345 66.5269 66.8291 66.5269C79.5505 66.5269 90.6292 59.3469 96.2158 48.8229C98.9878 43.5989 95.0598 37.3016 89.1465 37.2562C89.0878 37.2549 89.0305 37.2549 88.9718 37.2549C86.0732 37.2322 83.3265 38.7455 81.9638 41.3042Z" fill="#E17AB3"/>
<path d="M110.101 151.083L77.2356 183.948C76.8423 184.34 76.413 184.684 75.9597 184.979C75.7997 185.09 75.6396 185.175 75.481 185.262C75.3943 185.323 75.297 185.371 75.2103 185.408C75.0637 185.494 74.9156 185.555 74.769 185.618C74.6463 185.679 74.5237 185.727 74.389 185.776C74.3397 185.802 74.2783 185.814 74.229 185.838C74.229 185.838 74.1797 185.85 74.1063 185.875C74.069 185.887 74.033 185.899 73.9836 185.911C73.861 185.96 73.7263 185.998 73.6023 186.022C73.5543 186.034 73.493 186.047 73.4316 186.059C73.345 186.083 73.2476 186.095 73.149 186.12C72.9276 186.182 72.7076 186.219 72.4863 186.231C72.3636 186.243 72.241 186.255 72.1183 186.267C71.9343 186.28 71.7623 186.292 71.5783 186.292C71.5663 186.292 71.5663 186.292 71.553 186.292C70.4863 186.292 69.4063 186.071 68.4117 185.63C67.5037 185.248 66.657 184.684 65.921 183.948L47.561 165.602L33.0437 151.083C29.9263 147.954 29.9263 142.886 33.0437 139.768L65.921 106.891C67.4797 105.332 69.529 104.547 71.5783 104.547C73.6277 104.547 75.665 105.332 77.2356 106.891L110.101 139.768C112.91 142.566 113.193 146.935 110.936 150.064C110.702 150.42 110.42 150.764 110.101 151.083ZM131.822 118.046L98.957 85.1682C91.6436 77.8549 81.9117 73.8295 71.5783 73.8295C61.233 73.8295 51.513 77.8549 44.1983 85.1682L11.321 118.046C-3.77367 133.142 -3.77367 157.71 11.321 172.804L31.1903 192.662L44.1983 205.67C51.513 212.984 61.233 217.01 71.5783 217.01C72.1063 217.01 72.621 216.998 73.137 216.972C82.893 216.592 92.0116 212.616 98.957 205.67L131.822 172.804C133.086 171.554 134.228 170.227 135.27 168.84C146.806 153.684 145.653 131.89 131.822 118.046Z" fill="#E17AB3"/>
<mask id="mask0_1233_465" style="mask-type:luminance" maskUnits="userSpaceOnUse" x="31" y="150" width="105" height="68">
<path d="M135.27 168.84C134.228 170.227 133.086 171.554 131.822 172.804L98.9571 205.67C92.0117 212.616 82.8931 216.592 73.1371 216.972C72.6211 216.998 72.1064 217.01 71.5784 217.01C61.2331 217.01 51.5131 212.984 44.1984 205.67L31.1904 192.662C35.5224 184.414 41.0331 175.284 47.5611 165.602L65.9211 183.948C66.6571 184.684 67.5038 185.248 68.4118 185.63C69.4064 186.071 70.4864 186.292 71.5531 186.292C71.5664 186.292 71.5664 186.292 71.5784 186.292C71.7624 186.292 71.9344 186.28 72.1184 186.267C72.2411 186.255 72.3638 186.243 72.4864 186.231C72.7198 186.194 72.9398 186.158 73.1491 186.12C73.2478 186.095 73.3451 186.083 73.4318 186.059C73.4931 186.047 73.5544 186.034 73.6024 186.022C73.7264 185.998 73.8611 185.96 73.9838 185.911C74.0331 185.899 74.0691 185.887 74.1064 185.875C74.1798 185.85 74.2291 185.838 74.2291 185.838C74.2784 185.814 74.3398 185.802 74.3891 185.776C74.5238 185.727 74.6464 185.679 74.7691 185.618C74.9158 185.555 75.0638 185.494 75.2104 185.408C75.2971 185.371 75.3944 185.323 75.4811 185.262C75.6398 185.175 75.7998 185.09 75.9598 184.979C76.4131 184.684 76.8424 184.34 77.2358 183.948L110.101 151.083C110.42 150.764 110.702 150.42 110.936 150.064L117.501 151.083L135.27 168.84Z" fill="white"/>
</mask>
<g mask="url(#mask0_1233_465)">
<path d="M135.27 168.84C134.228 170.227 133.086 171.554 131.822 172.804L98.9571 205.67C92.0117 212.616 82.8931 216.592 73.1371 216.972C72.6211 216.998 72.1064 217.01 71.5784 217.01C61.2331 217.01 51.5131 212.984 44.1984 205.67L31.1904 192.662C35.5224 184.414 41.0331 175.284 47.5611 165.602L65.9211 183.948C66.6571 184.684 67.5038 185.248 68.4118 185.63C69.4064 186.071 70.4864 186.292 71.5531 186.292C71.5664 186.292 71.5664 186.292 71.5784 186.292C71.7624 186.292 71.9344 186.28 72.1184 186.267C72.2411 186.255 72.3638 186.243 72.4864 186.231C72.7198 186.194 72.9398 186.158 73.1491 186.12C73.2478 186.095 73.3451 186.083 73.4318 186.059C73.4931 186.047 73.5544 186.034 73.6024 186.022C73.7264 185.998 73.8611 185.96 73.9838 185.911C74.0331 185.899 74.0691 185.887 74.1064 185.875C74.1798 185.85 74.2291 185.838 74.2291 185.838C74.2784 185.814 74.3398 185.802 74.3891 185.776C74.5238 185.727 74.6464 185.679 74.7691 185.618C74.9158 185.555 75.0638 185.494 75.2104 185.408C75.2971 185.371 75.3944 185.323 75.4811 185.262C75.6398 185.175 75.7998 185.09 75.9598 184.979C76.4131 184.684 76.8424 184.34 77.2358 183.948L110.101 151.083C110.42 150.764 110.702 150.42 110.936 150.064L117.501 151.083L135.27 168.84Z" fill="#E17AB3"/>
</g>
<path d="M216.29 118.039L183.414 85.1749C176.099 77.8616 166.381 73.8309 156.035 73.8309C145.69 73.8309 135.97 77.8616 128.657 85.1749L113.811 100.031L131.819 118.039C133.083 119.29 134.226 120.614 135.273 121.996L150.381 106.9C151.945 105.336 153.99 104.555 156.035 104.555C158.079 104.555 160.137 105.336 161.701 106.9L194.565 139.764C197.693 142.892 197.693 147.956 194.565 151.084L161.701 183.948C160.137 185.512 158.079 186.294 156.035 186.294C153.99 186.294 151.945 185.512 150.381 183.948L135.285 168.851C135.273 168.851 135.273 168.839 135.273 168.839L117.505 151.084C115.893 149.46 115.111 147.319 115.183 145.202C113.763 143.698 112.321 142.194 110.913 140.727C110.673 140.39 110.395 140.066 110.095 139.764L106.029 135.711C105.885 135.566 105.741 135.41 105.595 135.266C98.1741 127.711 92.3394 121.996 92.3394 121.996H92.3274C87.2154 128.698 84.4487 136.854 84.4487 145.418C84.4487 153.995 87.2154 162.139 92.3394 168.839C93.3861 170.223 94.5407 171.546 95.7914 172.798L120.367 197.372L128.657 205.674C135.97 212.987 145.69 217.016 156.035 217.016C166.381 217.016 176.099 212.987 183.414 205.674L216.29 172.798C231.387 157.7 231.387 133.136 216.29 118.039Z" fill="#537EE4"/>
<path d="M301.486 118.033L268.621 85.1815C264.706 81.2655 260.104 78.2842 255.072 76.3815C250.716 74.7002 246.04 73.8295 241.241 73.8295C230.896 73.8295 221.177 77.8668 213.862 85.1815L198.645 100.387L216.292 118.033C217.678 119.42 218.942 120.893 220.072 122.415L235.584 106.903C237.142 105.332 239.192 104.559 241.241 104.559C243.278 104.559 245.328 105.332 246.9 106.903L279.764 139.768C282.881 142.897 282.881 147.953 279.764 151.083L246.9 183.948C245.328 185.507 243.278 186.292 241.241 186.292C239.192 186.292 237.142 185.507 235.584 183.948L221.656 170.031C221.656 170.019 221.642 170.019 221.642 170.007L220.06 168.436L202.706 151.083C201.284 149.647 200.498 147.807 200.388 145.954C198.742 144.223 197.086 142.516 195.466 140.86C195.221 140.48 194.914 140.111 194.57 139.768L186.286 131.496L184.74 129.937L183.292 128.49C180.544 125.716 178.494 123.679 177.646 122.856L177.217 122.415H177.205C167.142 136.037 167.154 154.813 177.217 168.436C178.346 169.957 179.598 171.417 180.985 172.792L198.645 190.452L206.033 197.84L213.862 205.669C221.177 212.984 230.896 217.021 241.241 217.021C251.588 217.021 261.306 212.984 268.621 205.669L301.486 172.792C316.581 157.697 316.581 133.141 301.486 118.033Z" fill="#FFC866"/>
<mask id="mask1_1233_465" style="mask-type:luminance" maskUnits="userSpaceOnUse" x="198" y="73" width="62" height="50">
<path d="M241.241 104.559C239.192 104.559 237.142 105.332 235.584 106.903L220.072 122.415C218.942 120.894 217.678 119.42 216.292 118.034L198.645 100.387L213.862 85.1816C221.177 77.8669 230.896 73.8296 241.241 73.8296C246.04 73.8296 250.716 74.7003 255.072 76.3816C270.081 91.0963 241.241 104.559 241.241 104.559Z" fill="white"/>
</mask>
<g mask="url(#mask1_1233_465)">
<path d="M241.241 104.559C239.192 104.559 237.142 105.332 235.584 106.903L220.072 122.415C218.942 120.894 217.678 119.42 216.292 118.034L198.645 100.387L213.862 85.1816C221.177 77.8669 230.896 73.8296 241.241 73.8296C246.04 73.8296 250.716 74.7003 255.072 76.3816C270.081 91.0963 241.241 104.559 241.241 104.559Z" fill="#FFC866"/>
</g>
<path d="M226.092 25.2282C229.244 19.3082 235.772 15.4522 243.097 16.2296C251.393 17.1109 257.956 24.1176 258.34 32.4522C258.793 42.2829 250.957 50.3935 241.226 50.3935C236.106 50.3935 231.509 48.1456 228.372 44.5789C226.216 42.1296 222.82 41.1896 219.773 42.3576C219.509 42.4589 219.245 42.5602 218.981 42.6602C214.098 44.5309 212.429 50.6816 215.8 54.6802C222.686 62.8509 233.43 67.6696 245.185 66.3016C260.39 64.5322 272.597 52.2589 274.286 37.0456C276.51 17.0256 260.821 0.0042276 241.226 0.0042276C228.505 0.0042276 217.428 7.18557 211.84 17.7096C209.068 22.9322 212.997 29.2296 218.91 29.2762C218.968 29.2762 219.025 29.2762 219.084 29.2776C221.982 29.3002 224.729 27.7869 226.092 25.2282Z" fill="#FFC866"/>
<path d="M57.8738 307.561C52.6538 307.561 48.0038 306.511 43.9238 304.411C39.9038 302.251 36.7238 299.311 34.3838 295.591C32.0438 291.811 30.8738 287.551 30.8738 282.811V243.931H46.3538V282.001C46.3538 284.281 46.8638 286.321 47.8838 288.121C48.9038 289.921 50.2838 291.361 52.0238 292.441C53.8238 293.461 55.7738 293.971 57.8738 293.971C60.0938 293.971 62.1038 293.461 63.9038 292.441C65.7038 291.361 67.1138 289.921 68.1338 288.121C69.2138 286.321 69.7538 284.281 69.7538 282.001V243.931H84.6938V282.811C84.6938 287.551 83.5238 291.811 81.1838 295.591C78.9038 299.311 75.7538 302.251 71.7338 304.411C67.7138 306.511 63.0938 307.561 57.8738 307.561ZM96.7243 307.021V259.231H110.494L111.034 268.951L108.064 270.031C108.724 267.871 109.894 265.921 111.574 264.181C113.314 262.381 115.384 260.941 117.784 259.861C120.184 258.781 122.704 258.241 125.344 258.241C128.944 258.241 131.974 258.991 134.434 260.491C136.894 261.931 138.724 264.121 139.924 267.061C141.184 269.941 141.814 273.511 141.814 277.771V307.021H127.324V278.851C127.324 276.931 127.054 275.341 126.514 274.081C125.974 272.821 125.164 271.891 124.084 271.291C123.004 270.691 121.654 270.421 120.034 270.481C118.774 270.481 117.604 270.691 116.524 271.111C115.444 271.471 114.484 272.041 113.644 272.821C112.864 273.541 112.264 274.381 111.844 275.341C111.424 276.301 111.214 277.381 111.214 278.581V307.021H103.924C102.364 307.021 100.954 307.021 99.6943 307.021C98.4943 307.021 97.5043 307.021 96.7243 307.021ZM152.951 307.021V259.231H167.441V307.021H152.951ZM160.241 249.781C157.481 249.781 155.321 249.151 153.761 247.891C152.261 246.571 151.511 244.711 151.511 242.311C151.511 240.091 152.291 238.291 153.851 236.911C155.411 235.531 157.541 234.841 160.241 234.841C162.881 234.841 164.951 235.501 166.451 236.821C168.011 238.081 168.791 239.911 168.791 242.311C168.791 244.531 168.011 246.331 166.451 247.711C164.951 249.091 162.881 249.781 160.241 249.781ZM197.437 307.921C193.357 307.921 189.667 306.871 186.367 304.771C183.127 302.671 180.577 299.761 178.717 296.041C176.857 292.261 175.927 287.971 175.927 283.171C175.927 278.371 176.857 274.111 178.717 270.391C180.577 266.611 183.127 263.641 186.367 261.481C189.667 259.321 193.387 258.241 197.527 258.241C199.687 258.241 201.757 258.571 203.737 259.231C205.777 259.891 207.577 260.791 209.137 261.931C210.757 263.071 212.077 264.361 213.097 265.801C214.117 267.241 214.747 268.771 214.987 270.391L211.477 271.201V240.421H225.967V307.021H212.467L211.657 296.221L214.537 296.761C214.417 298.201 213.877 299.611 212.917 300.991C211.957 302.311 210.667 303.511 209.047 304.591C207.487 305.611 205.717 306.421 203.737 307.021C201.757 307.621 199.657 307.921 197.437 307.921ZM201.037 295.951C203.257 295.951 205.147 295.441 206.707 294.421C208.327 293.341 209.587 291.841 210.487 289.921C211.387 288.001 211.837 285.751 211.837 283.171C211.837 280.531 211.387 278.251 210.487 276.331C209.587 274.411 208.327 272.941 206.707 271.921C205.147 270.841 203.257 270.301 201.037 270.301C198.877 270.301 196.987 270.841 195.367 271.921C193.807 272.941 192.577 274.411 191.677 276.331C190.777 278.251 190.327 280.531 190.327 283.171C190.327 285.751 190.777 288.001 191.677 289.921C192.577 291.841 193.807 293.341 195.367 294.421C196.987 295.441 198.877 295.951 201.037 295.951ZM242.464 327.721L253.354 302.161L253.534 309.721L230.404 259.231H246.784L256.864 283.351C257.404 284.491 257.914 285.781 258.394 287.221C258.874 288.661 259.234 290.011 259.474 291.271L257.404 292.441C257.764 291.541 258.154 290.401 258.574 289.021C259.054 287.641 259.564 286.171 260.104 284.611L268.924 259.231H285.394L265.144 307.021L256.954 327.721H242.464Z" fill="#FFC866"/>
</svg>
