<svg width="1117" height="218" viewBox="0 0 1117 218" fill="none" xmlns="http://www.w3.org/2000/svg">
<path d="M154.03 0.00423574C135.689 0.00423574 120.766 14.9269 120.766 33.2682C120.766 51.6096 135.689 66.5322 154.03 66.5322C172.371 66.5322 187.294 51.6096 187.294 33.2682C187.294 14.9269 172.371 0.00423574 154.03 0.00423574ZM154.03 16.1336C163.493 16.1336 171.165 23.8056 171.165 33.2682C171.165 42.7309 163.493 50.4029 154.03 50.4029C144.567 50.4029 136.895 42.7309 136.895 33.2682C136.895 23.8056 144.567 16.1336 154.03 16.1336Z" fill="#537EE4"/>
<path d="M81.9638 41.3042C78.8118 47.2242 72.2838 51.0802 64.9585 50.3015C56.6625 49.4215 50.0998 42.4135 49.7158 34.0802C49.2625 24.2495 57.0985 16.1375 66.8291 16.1375C71.9491 16.1375 76.5465 18.3855 79.6852 21.9522C81.8398 24.4015 85.2358 25.3415 88.2825 24.1749C88.5465 24.0735 88.8105 23.9722 89.0745 23.8709C93.9572 22.0002 95.6265 15.8495 92.2558 11.8522C85.3692 3.68155 74.6252 -1.13714 62.8705 0.230863C47.6652 1.99886 35.4598 14.2722 33.7692 29.4869C31.5452 49.5055 47.2345 66.5269 66.8291 66.5269C79.5505 66.5269 90.6292 59.3469 96.2158 48.8229C98.9878 43.5989 95.0598 37.3016 89.1465 37.2562C89.0878 37.2549 89.0305 37.2549 88.9718 37.2549C86.0732 37.2322 83.3265 38.7455 81.9638 41.3042Z" fill="#E17AB3"/>
<path d="M110.101 151.083L77.2356 183.948C76.8423 184.34 76.413 184.684 75.9597 184.979C75.7997 185.09 75.6396 185.175 75.481 185.262C75.3943 185.323 75.297 185.371 75.2103 185.408C75.0637 185.494 74.9156 185.555 74.769 185.618C74.6463 185.679 74.5237 185.727 74.389 185.776C74.3397 185.802 74.2783 185.814 74.229 185.838C74.229 185.838 74.1797 185.85 74.1063 185.875C74.069 185.887 74.033 185.899 73.9836 185.911C73.861 185.96 73.7263 185.998 73.6023 186.022C73.5543 186.034 73.493 186.047 73.4316 186.059C73.345 186.083 73.2476 186.095 73.149 186.12C72.9276 186.182 72.7076 186.219 72.4863 186.231C72.3636 186.243 72.241 186.255 72.1183 186.267C71.9343 186.28 71.7623 186.292 71.5783 186.292C71.5663 186.292 71.5663 186.292 71.553 186.292C70.4863 186.292 69.4063 186.071 68.4117 185.63C67.5037 185.248 66.657 184.684 65.921 183.948L47.561 165.602L33.0437 151.083C29.9263 147.954 29.9263 142.886 33.0437 139.768L65.921 106.891C67.4797 105.332 69.529 104.547 71.5783 104.547C73.6277 104.547 75.665 105.332 77.2356 106.891L110.101 139.768C112.91 142.566 113.193 146.935 110.936 150.064C110.702 150.42 110.42 150.764 110.101 151.083ZM131.822 118.046L98.957 85.1682C91.6436 77.8549 81.9117 73.8295 71.5783 73.8295C61.233 73.8295 51.513 77.8549 44.1983 85.1682L11.321 118.046C-3.77367 133.142 -3.77367 157.71 11.321 172.804L31.1903 192.662L44.1983 205.67C51.513 212.984 61.233 217.01 71.5783 217.01C72.1063 217.01 72.621 216.998 73.137 216.972C82.893 216.592 92.0116 212.616 98.957 205.67L131.822 172.804C133.086 171.554 134.228 170.227 135.27 168.84C146.806 153.684 145.653 131.89 131.822 118.046Z" fill="#E17AB3"/>
<mask id="mask0_1230_447" style="mask-type:luminance" maskUnits="userSpaceOnUse" x="31" y="150" width="105" height="68">
<path d="M135.27 168.84C134.228 170.227 133.086 171.554 131.822 172.804L98.9571 205.67C92.0117 212.616 82.8931 216.592 73.1371 216.972C72.6211 216.998 72.1064 217.01 71.5784 217.01C61.2331 217.01 51.5131 212.984 44.1984 205.67L31.1904 192.662C35.5224 184.414 41.0331 175.284 47.5611 165.602L65.9211 183.948C66.6571 184.684 67.5038 185.248 68.4118 185.63C69.4064 186.071 70.4864 186.292 71.5531 186.292C71.5664 186.292 71.5664 186.292 71.5784 186.292C71.7624 186.292 71.9344 186.28 72.1184 186.267C72.2411 186.255 72.3638 186.243 72.4864 186.231C72.7198 186.194 72.9398 186.158 73.1491 186.12C73.2478 186.095 73.3451 186.083 73.4318 186.059C73.4931 186.047 73.5544 186.034 73.6024 186.022C73.7264 185.998 73.8611 185.96 73.9838 185.911C74.0331 185.899 74.0691 185.887 74.1064 185.875C74.1798 185.85 74.2291 185.838 74.2291 185.838C74.2784 185.814 74.3398 185.802 74.3891 185.776C74.5238 185.727 74.6464 185.679 74.7691 185.618C74.9158 185.555 75.0638 185.494 75.2104 185.408C75.2971 185.371 75.3944 185.323 75.4811 185.262C75.6398 185.175 75.7998 185.09 75.9598 184.979C76.4131 184.684 76.8424 184.34 77.2358 183.948L110.101 151.083C110.42 150.764 110.702 150.42 110.936 150.064L117.501 151.083L135.27 168.84Z" fill="white"/>
</mask>
<g mask="url(#mask0_1230_447)">
<path d="M135.27 168.84C134.228 170.227 133.086 171.554 131.822 172.804L98.9571 205.67C92.0117 212.616 82.8931 216.592 73.1371 216.972C72.6211 216.998 72.1064 217.01 71.5784 217.01C61.2331 217.01 51.5131 212.984 44.1984 205.67L31.1904 192.662C35.5224 184.414 41.0331 175.284 47.5611 165.602L65.9211 183.948C66.6571 184.684 67.5038 185.248 68.4118 185.63C69.4064 186.071 70.4864 186.292 71.5531 186.292C71.5664 186.292 71.5664 186.292 71.5784 186.292C71.7624 186.292 71.9344 186.28 72.1184 186.267C72.2411 186.255 72.3638 186.243 72.4864 186.231C72.7198 186.194 72.9398 186.158 73.1491 186.12C73.2478 186.095 73.3451 186.083 73.4318 186.059C73.4931 186.047 73.5544 186.034 73.6024 186.022C73.7264 185.998 73.8611 185.96 73.9838 185.911C74.0331 185.899 74.0691 185.887 74.1064 185.875C74.1798 185.85 74.2291 185.838 74.2291 185.838C74.2784 185.814 74.3398 185.802 74.3891 185.776C74.5238 185.727 74.6464 185.679 74.7691 185.618C74.9158 185.555 75.0638 185.494 75.2104 185.408C75.2971 185.371 75.3944 185.323 75.4811 185.262C75.6398 185.175 75.7998 185.09 75.9598 184.979C76.4131 184.684 76.8424 184.34 77.2358 183.948L110.101 151.083C110.42 150.764 110.702 150.42 110.936 150.064L117.501 151.083L135.27 168.84Z" fill="#E17AB3"/>
</g>
<path d="M216.29 118.039L183.414 85.1749C176.099 77.8616 166.381 73.8309 156.035 73.8309C145.69 73.8309 135.97 77.8616 128.657 85.1749L113.811 100.031L131.819 118.039C133.083 119.29 134.226 120.614 135.273 121.996L150.381 106.9C151.945 105.336 153.99 104.555 156.035 104.555C158.079 104.555 160.137 105.336 161.701 106.9L194.565 139.764C197.693 142.892 197.693 147.956 194.565 151.084L161.701 183.948C160.137 185.512 158.079 186.294 156.035 186.294C153.99 186.294 151.945 185.512 150.381 183.948L135.285 168.851C135.273 168.851 135.273 168.839 135.273 168.839L117.505 151.084C115.893 149.46 115.111 147.319 115.183 145.202C113.763 143.698 112.321 142.194 110.913 140.727C110.673 140.39 110.395 140.066 110.095 139.764L106.029 135.711C105.885 135.566 105.741 135.41 105.595 135.266C98.1741 127.711 92.3394 121.996 92.3394 121.996H92.3274C87.2154 128.698 84.4487 136.854 84.4487 145.418C84.4487 153.995 87.2154 162.139 92.3394 168.839C93.3861 170.223 94.5407 171.546 95.7914 172.798L120.367 197.372L128.657 205.674C135.97 212.987 145.69 217.016 156.035 217.016C166.381 217.016 176.099 212.987 183.414 205.674L216.29 172.798C231.387 157.7 231.387 133.136 216.29 118.039Z" fill="#537EE4"/>
<path d="M301.486 118.033L268.621 85.1815C264.706 81.2655 260.104 78.2842 255.072 76.3815C250.716 74.7002 246.04 73.8295 241.241 73.8295C230.896 73.8295 221.177 77.8668 213.862 85.1815L198.645 100.387L216.292 118.033C217.678 119.42 218.942 120.893 220.072 122.415L235.584 106.903C237.142 105.332 239.192 104.559 241.241 104.559C243.278 104.559 245.328 105.332 246.9 106.903L279.764 139.768C282.881 142.897 282.881 147.953 279.764 151.083L246.9 183.948C245.328 185.507 243.278 186.292 241.241 186.292C239.192 186.292 237.142 185.507 235.584 183.948L221.656 170.031C221.656 170.019 221.642 170.019 221.642 170.007L220.06 168.436L202.706 151.083C201.284 149.647 200.498 147.807 200.388 145.954C198.742 144.223 197.086 142.516 195.466 140.86C195.221 140.48 194.914 140.111 194.57 139.768L186.286 131.496L184.74 129.937L183.292 128.49C180.544 125.716 178.494 123.679 177.646 122.856L177.217 122.415H177.205C167.142 136.037 167.154 154.813 177.217 168.436C178.346 169.957 179.598 171.417 180.985 172.792L198.645 190.452L206.033 197.84L213.862 205.669C221.177 212.984 230.896 217.021 241.241 217.021C251.588 217.021 261.306 212.984 268.621 205.669L301.486 172.792C316.581 157.697 316.581 133.141 301.486 118.033Z" fill="#FFC866"/>
<mask id="mask1_1230_447" style="mask-type:luminance" maskUnits="userSpaceOnUse" x="198" y="73" width="62" height="50">
<path d="M241.241 104.559C239.192 104.559 237.142 105.332 235.584 106.903L220.072 122.415C218.942 120.894 217.678 119.42 216.292 118.034L198.645 100.387L213.862 85.1816C221.177 77.8669 230.896 73.8296 241.241 73.8296C246.04 73.8296 250.716 74.7003 255.072 76.3816C270.081 91.0963 241.241 104.559 241.241 104.559Z" fill="white"/>
</mask>
<g mask="url(#mask1_1230_447)">
<path d="M241.241 104.559C239.192 104.559 237.142 105.332 235.584 106.903L220.072 122.415C218.942 120.894 217.678 119.42 216.292 118.034L198.645 100.387L213.862 85.1816C221.177 77.8669 230.896 73.8296 241.241 73.8296C246.04 73.8296 250.716 74.7003 255.072 76.3816C270.081 91.0963 241.241 104.559 241.241 104.559Z" fill="#FFC866"/>
</g>
<path d="M226.092 25.2282C229.244 19.3082 235.772 15.4522 243.097 16.2296C251.393 17.1109 257.956 24.1176 258.34 32.4522C258.793 42.2829 250.957 50.3935 241.226 50.3935C236.106 50.3935 231.509 48.1456 228.372 44.5789C226.216 42.1296 222.82 41.1896 219.773 42.3576C219.509 42.4589 219.245 42.5602 218.981 42.6602C214.098 44.5309 212.429 50.6816 215.8 54.6802C222.686 62.8509 233.43 67.6696 245.185 66.3016C260.39 64.5322 272.597 52.2589 274.286 37.0456C276.51 17.0256 260.821 0.0042276 241.226 0.0042276C228.505 0.0042276 217.428 7.18557 211.84 17.7096C209.068 22.9322 212.997 29.2296 218.91 29.2762C218.968 29.2762 219.025 29.2762 219.084 29.2776C221.982 29.3002 224.729 27.7869 226.092 25.2282Z" fill="#FFC866"/>
<path d="M398.768 169.231C391.808 169.231 385.608 167.831 380.168 165.031C374.808 162.151 370.568 158.231 367.448 153.271C364.328 148.231 362.768 142.551 362.768 136.231V84.3907H383.408V135.151C383.408 138.191 384.088 140.911 385.448 143.311C386.808 145.711 388.648 147.631 390.968 149.071C393.368 150.431 395.968 151.111 398.768 151.111C401.728 151.111 404.408 150.431 406.808 149.071C409.208 147.631 411.088 145.711 412.448 143.311C413.888 140.911 414.608 138.191 414.608 135.151V84.3907H434.528V136.231C434.528 142.551 432.968 148.231 429.848 153.271C426.808 158.231 422.608 162.151 417.248 165.031C411.888 167.831 405.728 169.231 398.768 169.231ZM450.568 168.511V104.791H468.928L469.648 117.751L465.688 119.191C466.568 116.311 468.128 113.711 470.368 111.391C472.688 108.991 475.448 107.071 478.648 105.631C481.848 104.191 485.208 103.471 488.728 103.471C493.528 103.471 497.568 104.471 500.848 106.471C504.128 108.391 506.568 111.311 508.168 115.231C509.848 119.071 510.688 123.831 510.688 129.511V168.511H491.368V130.951C491.368 128.391 491.008 126.271 490.288 124.591C489.568 122.911 488.488 121.671 487.048 120.871C485.608 120.071 483.808 119.711 481.648 119.791C479.968 119.791 478.408 120.071 476.968 120.631C475.528 121.111 474.248 121.871 473.128 122.911C472.088 123.871 471.288 124.991 470.728 126.271C470.168 127.551 469.888 128.991 469.888 130.591V168.511H460.168C458.088 168.511 456.208 168.511 454.528 168.511C452.928 168.511 451.608 168.511 450.568 168.511ZM525.537 168.511V104.791H544.857V168.511H525.537ZM535.257 92.1907C531.577 92.1907 528.697 91.3507 526.617 89.6707C524.617 87.9107 523.617 85.4307 523.617 82.2307C523.617 79.2707 524.657 76.8707 526.737 75.0307C528.817 73.1907 531.657 72.2707 535.257 72.2707C538.777 72.2707 541.537 73.1507 543.537 74.9107C545.617 76.5907 546.657 79.0307 546.657 82.2307C546.657 85.1907 545.617 87.5907 543.537 89.4307C541.537 91.2707 538.777 92.1907 535.257 92.1907ZM584.852 169.711C579.412 169.711 574.492 168.311 570.092 165.511C565.772 162.711 562.372 158.831 559.892 153.871C557.412 148.831 556.172 143.111 556.172 136.711C556.172 130.311 557.412 124.631 559.892 119.671C562.372 114.631 565.772 110.671 570.092 107.791C574.492 104.911 579.452 103.471 584.972 103.471C587.852 103.471 590.612 103.911 593.252 104.791C595.972 105.671 598.372 106.871 600.452 108.391C602.612 109.911 604.372 111.631 605.732 113.551C607.092 115.471 607.932 117.511 608.252 119.671L603.572 120.751V79.7107H622.892V168.511H604.892L603.812 154.111L607.652 154.831C607.492 156.751 606.772 158.631 605.492 160.471C604.212 162.231 602.492 163.831 600.332 165.271C598.252 166.631 595.892 167.711 593.252 168.511C590.612 169.311 587.812 169.711 584.852 169.711ZM589.652 153.751C592.612 153.751 595.132 153.071 597.212 151.711C599.372 150.271 601.052 148.271 602.252 145.711C603.452 143.151 604.052 140.151 604.052 136.711C604.052 133.191 603.452 130.151 602.252 127.591C601.052 125.031 599.372 123.071 597.212 121.711C595.132 120.271 592.612 119.551 589.652 119.551C586.772 119.551 584.252 120.271 582.092 121.711C580.012 123.071 578.372 125.031 577.172 127.591C575.972 130.151 575.372 133.191 575.372 136.711C575.372 140.151 575.972 143.151 577.172 145.711C578.372 148.271 580.012 150.271 582.092 151.711C584.252 153.071 586.772 153.751 589.652 153.751ZM644.888 196.111L659.408 162.031L659.648 172.111L628.808 104.791H650.648L664.088 136.951C664.808 138.471 665.488 140.191 666.128 142.111C666.768 144.031 667.248 145.831 667.568 147.511L664.808 149.071C665.288 147.871 665.808 146.351 666.368 144.511C667.008 142.671 667.688 140.711 668.408 138.631L680.168 104.791H702.128L675.128 168.511L664.208 196.111H644.888ZM736.259 168.511L769.499 84.5107H786.899L819.899 168.511H799.259L783.299 125.911C782.739 124.231 782.099 122.431 781.379 120.511C780.739 118.591 780.099 116.591 779.459 114.511C778.819 112.431 778.219 110.431 777.659 108.511C777.099 106.591 776.619 104.791 776.219 103.111L779.699 102.991C779.219 104.991 778.699 106.951 778.139 108.871C777.579 110.791 776.979 112.711 776.339 114.631C775.699 116.551 775.019 118.471 774.299 120.391C773.659 122.231 772.979 124.151 772.259 126.151L756.419 168.511H736.259ZM752.099 152.431L758.579 136.831H796.979L803.459 152.431H752.099ZM847.947 169.711C842.507 169.711 837.587 168.311 833.187 165.511C828.867 162.711 825.467 158.831 822.987 153.871C820.507 148.831 819.267 143.111 819.267 136.711C819.267 130.311 820.507 124.631 822.987 119.671C825.467 114.631 828.867 110.671 833.187 107.791C837.587 104.911 842.547 103.471 848.067 103.471C850.947 103.471 853.707 103.911 856.347 104.791C859.067 105.671 861.467 106.871 863.547 108.391C865.707 109.911 867.467 111.631 868.827 113.551C870.187 115.471 871.027 117.511 871.347 119.671L866.667 120.751V79.7107H885.987V168.511H867.987L866.907 154.111L870.747 154.831C870.587 156.751 869.867 158.631 868.587 160.471C867.307 162.231 865.587 163.831 863.427 165.271C861.347 166.631 858.987 167.711 856.347 168.511C853.707 169.311 850.907 169.711 847.947 169.711ZM852.747 153.751C855.707 153.751 858.227 153.071 860.307 151.711C862.467 150.271 864.147 148.271 865.347 145.711C866.547 143.151 867.147 140.151 867.147 136.711C867.147 133.191 866.547 130.151 865.347 127.591C864.147 125.031 862.467 123.071 860.307 121.711C858.227 120.271 855.707 119.551 852.747 119.551C849.867 119.551 847.347 120.271 845.187 121.711C843.107 123.071 841.467 125.031 840.267 127.591C839.067 130.151 838.467 133.191 838.467 136.711C838.467 140.151 839.067 143.151 840.267 145.711C841.467 148.271 843.107 150.271 845.187 151.711C847.347 153.071 849.867 153.751 852.747 153.751ZM899.703 168.511V104.791H918.063L918.663 116.311L916.023 116.551C916.903 114.471 918.103 112.631 919.623 111.031C921.143 109.431 922.823 108.111 924.663 107.071C926.583 105.951 928.583 105.111 930.663 104.551C932.743 103.911 934.823 103.591 936.903 103.591C940.103 103.591 942.943 104.071 945.423 105.031C947.983 105.991 950.183 107.551 952.023 109.711C953.943 111.871 955.463 114.751 956.583 118.351L953.703 117.871L954.543 116.191C955.663 114.271 957.023 112.551 958.623 111.031C960.303 109.431 962.143 108.071 964.143 106.951C966.143 105.831 968.183 104.991 970.263 104.431C972.423 103.871 974.503 103.591 976.503 103.591C981.543 103.591 985.743 104.591 989.103 106.591C992.463 108.591 994.983 111.551 996.663 115.471C998.343 119.311 999.183 124.071 999.183 129.751V168.511H979.863V131.191C979.863 127.431 979.063 124.631 977.463 122.791C975.943 120.871 973.623 119.911 970.503 119.911C968.823 119.911 967.263 120.191 965.823 120.751C964.463 121.231 963.263 121.991 962.223 123.031C961.263 123.991 960.503 125.111 959.943 126.391C959.383 127.671 959.103 129.111 959.103 130.711V168.511H939.783V131.071C939.783 127.471 938.943 124.711 937.263 122.791C935.663 120.871 933.383 119.911 930.423 119.911C928.823 119.911 927.303 120.191 925.863 120.751C924.503 121.231 923.303 121.991 922.263 123.031C921.303 123.991 920.543 125.111 919.983 126.391C919.423 127.671 919.143 129.111 919.143 130.711V168.511H899.703ZM1013.93 168.511V104.791H1033.25V168.511H1013.93ZM1023.65 92.1907C1019.97 92.1907 1017.09 91.3507 1015.01 89.6707C1013.01 87.9107 1012.01 85.4307 1012.01 82.2307C1012.01 79.2707 1013.05 76.8707 1015.13 75.0307C1017.21 73.1907 1020.05 72.2707 1023.65 72.2707C1027.17 72.2707 1029.93 73.1507 1031.93 74.9107C1034.01 76.5907 1035.05 79.0307 1035.05 82.2307C1035.05 85.1907 1034.01 87.5907 1031.93 89.4307C1029.93 91.2707 1027.17 92.1907 1023.65 92.1907ZM1049.01 168.511V104.791H1067.37L1068.09 117.751L1064.13 119.191C1065.01 116.311 1066.57 113.711 1068.81 111.391C1071.13 108.991 1073.89 107.071 1077.09 105.631C1080.29 104.191 1083.65 103.471 1087.17 103.471C1091.97 103.471 1096.01 104.471 1099.29 106.471C1102.57 108.391 1105.01 111.311 1106.61 115.231C1108.29 119.071 1109.13 123.831 1109.13 129.511V168.511H1089.81V130.951C1089.81 128.391 1089.45 126.271 1088.73 124.591C1088.01 122.911 1086.93 121.671 1085.49 120.871C1084.05 120.071 1082.25 119.711 1080.09 119.791C1078.41 119.791 1076.85 120.071 1075.41 120.631C1073.97 121.111 1072.69 121.871 1071.57 122.911C1070.53 123.871 1069.73 124.991 1069.17 126.271C1068.61 127.551 1068.33 128.991 1068.33 130.591V168.511H1058.61C1056.53 168.511 1054.65 168.511 1052.97 168.511C1051.37 168.511 1050.05 168.511 1049.01 168.511Z" fill="#FFC866"/>
</svg>
